# xmcd
#
# Track frame offsets:
#	150
#	13409
#	28926
#	50465
#	71506
#	84055
#	106436
#	130826
#	145095
#	158489
#
# Disc length: 2337 seconds
#
# Revision: 0
# Processed by: cddbd v1.5.1PL2 Copyright (c) Steve Scherf et al.
# Submitted via: EasyCDDAExtractor 9.0.0.1
#
DISCID=7d091f0a
DTITLE=Sarah Pierce - No Place Like Home
DYEAR=1997
DGENRE=Country
TTITLE0=No Place Like Home
TTITLE1=High Powered Love
TTITLE2=Chase A Dream
TTITLE3=Saving Grace
TTITLE4=Cool Me Down
TTITLE5=The River
TTITLE6=Hard Road
TTITLE7=Soft One
TTITLE8=Somebody New
TTITLE9=Harvest Queen
EXTD=
EXTT0=
EXTT1=
EXTT2=
EXTT3=
EXTT4=
EXTT5=
EXTT6=
EXTT7=
EXTT8=
EXTT9=
PLAYORDER=
